<svg version="1.1" id="Layer_1" xmlns="http://www.w3.org/2000/svg" xmlns:xlink="http://www.w3.org/1999/xlink" x="0px" y="0px"
	 width="100%" viewBox="0 0 640 640" enable-background="new 0 0 640 640" xml:space="preserve">
<path fill="#0000" opacity="1.000000" stroke="none" 
	d="
M1.000000,251.000000 
	C1.000000,168.682632 1.024574,86.865242 0.911331,5.048031 
	C0.906739,1.730198 1.428398,0.897968 4.950584,0.899839 
	C215.576096,1.011715 426.201660,1.014180 636.827148,0.887939 
	C640.643127,0.885652 641.080872,1.927300 641.079407,5.325573 
	C640.991028,215.784470 640.990112,426.243408 641.085815,636.702271 
	C641.087402,640.175720 640.538330,641.108643 636.799316,641.106567 
	C426.340454,640.986816 215.881500,640.986389 5.422647,641.105164 
	C1.499802,641.107361 0.911684,640.031494 0.914554,636.424255 
	C1.016615,508.116211 1.000000,379.808105 1.000000,251.000000 
z"/>
<path fill="#940001" opacity="1.000000" stroke="none" 
	d="
M469.213440,295.152863 
	C466.050140,296.731110 463.288330,298.314209 460.370178,299.518585 
	C456.574829,301.085083 456.038910,302.305725 459.864380,304.836212 
	C476.816071,316.049530 489.341400,331.175568 497.979370,349.479462 
	C502.691681,359.464874 502.725311,357.960388 492.811523,360.353455 
	C485.693787,362.071564 478.495178,363.463654 471.152924,363.794434 
	C466.045258,364.024445 461.337830,362.321472 456.384644,360.183899 
	C455.832550,364.292419 457.442444,367.834290 458.321686,371.343872 
	C461.487335,383.979797 463.790833,396.725586 464.416260,409.740936 
	C464.919708,420.218414 463.768036,430.321045 457.772583,439.419006 
	C449.301178,452.274170 439.367401,463.906799 428.412964,474.652832 
	C423.560822,479.412628 423.301971,479.148773 419.691162,474.019257 
	C418.037750,477.618835 416.625092,481.109863 414.878876,484.425171 
	C406.558289,500.222015 394.850616,513.436462 382.427246,526.005676 
	C364.824707,543.814758 345.488800,559.568359 324.725525,573.588318 
	C321.944305,575.466309 320.051941,575.475464 317.266510,573.569763 
	C288.948486,554.195496 262.949799,532.246704 241.225113,505.531494 
	C234.277298,496.987671 228.087494,487.930328 223.959229,477.610809 
	C223.501038,476.465485 223.438232,474.983337 221.677078,474.153961 
	C220.066422,480.165314 217.097351,478.127716 214.264420,475.284210 
	C201.902100,462.875580 189.931274,450.096466 181.577515,434.522034 
	C177.274872,426.500305 177.139557,417.567261 177.581543,408.679230 
	C178.329849,393.631073 181.778687,379.050568 185.271820,364.477905 
	C185.570984,363.229950 186.400909,362.013184 185.489655,360.287415 
	C171.598206,367.223877 157.997452,361.928375 144.266373,359.195099 
	C140.532898,358.451904 140.723846,356.759216 141.948624,353.948395 
	C150.526978,334.261169 163.156723,317.874847 180.900711,305.570892 
	C182.496857,304.464081 184.485764,303.784241 185.746613,301.513550 
	C175.900848,296.993622 166.422394,291.945648 157.170349,286.489044 
	C124.018684,266.937134 94.370003,243.127747 70.606285,212.703796 
	C55.048504,192.785645 45.587250,169.956284 46.448296,144.318909 
	C47.609455,109.745613 62.823162,83.818634 95.922546,70.124855 
	C101.081528,67.990494 106.456322,67.117180 111.876862,66.270454 
	C112.808350,66.124954 114.010857,65.734154 114.593109,66.752144 
	C115.160881,67.744835 114.297432,68.632347 113.752609,69.447891 
	C109.278053,76.145813 105.434746,83.200569 104.000023,91.181175 
	C99.193703,117.916183 107.502258,140.933426 125.131050,160.733215 
	C138.858948,176.151733 157.030518,185.060776 175.764816,192.833939 
	C196.033066,201.243576 217.048889,206.713135 238.913696,208.861969 
	C243.134888,209.276825 247.015244,209.243576 250.667877,206.351685 
	C262.154999,197.256989 275.725006,199.510651 288.673828,200.571686 
	C299.172333,201.431931 310.019958,201.701996 319.817932,206.647980 
	C320.835449,207.161621 321.673248,206.762085 322.644257,206.412430 
	C340.536224,199.969772 359.135132,199.473831 377.811218,200.272034 
	C382.686249,200.480392 387.036224,203.207321 390.897766,206.126724 
	C394.660858,208.971649 398.632874,209.336441 403.100220,208.891647 
	C433.519012,205.863007 461.980530,196.492416 488.872681,182.254150 
	C512.599915,169.691605 529.446289,151.135147 536.672913,124.818268 
	C541.848816,105.969093 540.429077,87.887230 529.367981,71.154312 
	C528.506592,69.851265 526.528015,68.455788 527.488464,66.843864 
	C528.481506,65.177391 530.488647,66.446495 532.052979,66.662453 
	C561.466064,70.723061 588.002808,95.069633 593.956421,128.436264 
	C599.615723,160.153839 590.351135,188.050018 571.335266,212.652664 
	C546.044922,245.373398 513.883789,270.343323 477.879578,290.449768 
	C475.117798,291.992065 472.324249,293.477478 469.213440,295.152863 
z"/>
<path fill="#050101" opacity="1.000000" stroke="none" 
	d="
M534.060791,71.324158 
	C541.833008,70.719337 548.324402,74.453323 554.623962,78.009102 
	C575.803894,89.964119 587.498413,108.563370 591.030640,132.391220 
	C595.790833,164.502808 584.644714,191.928299 564.479126,215.873672 
	C533.962219,252.110626 496.390594,279.277405 453.355621,298.959106 
	C452.011536,299.573853 450.717651,300.298462 449.154541,301.097504 
	C449.955658,303.158112 451.796906,303.680908 453.245361,304.556061 
	C472.208954,316.014160 485.979340,332.054138 495.507294,351.953461 
	C497.022614,355.118195 496.486267,356.388153 493.122498,356.953827 
	C488.039154,357.808655 483.018402,359.088898 477.914581,359.756439 
	C470.546814,360.720032 463.281189,360.506836 456.665161,356.323883 
	C454.589569,355.011566 452.307831,354.025330 449.254303,352.440186 
	C453.742828,364.437653 456.133575,376.075470 458.380402,387.719727 
	C460.653931,399.502289 462.046509,411.417969 460.372528,423.445740 
	C458.822571,434.582245 451.692352,442.743774 445.076782,451.044464 
	C439.792603,457.674683 433.847260,463.774597 428.293060,470.194427 
	C425.734772,473.151489 423.766602,473.803131 421.908264,469.567993 
	C421.368408,468.337708 420.764893,466.366211 418.996857,466.581848 
	C417.460815,466.769226 417.656128,468.713318 417.289825,469.879578 
	C411.370789,488.726166 398.978394,503.384674 385.946564,517.445251 
	C367.657898,537.177673 346.916809,554.139038 324.832886,569.486267 
	C322.179504,571.330261 320.298065,571.718445 317.428589,569.692261 
	C287.628815,548.650024 260.015564,525.307556 238.080582,495.814972 
	C231.444763,486.892822 227.103348,476.881836 223.545197,466.546997 
	C221.554626,466.296356 220.992798,467.798615 220.535110,468.876282 
	C218.520447,473.619659 216.391052,473.227051 213.193558,469.737671 
	C205.200623,461.015076 197.670700,451.932281 190.344055,442.645050 
	C181.553070,431.501678 180.118225,418.871216 181.308807,405.332703 
	C182.872223,387.554352 186.924316,370.347687 192.248627,353.401672 
	C191.586639,352.845947 190.940170,353.125519 190.420624,353.504272 
	C179.816605,361.234467 168.220016,361.144775 156.049362,358.342896 
	C144.113525,355.595154 144.072617,355.836365 150.004288,345.119019 
	C159.486389,327.986725 172.441055,314.205078 189.352341,304.222137 
	C190.351822,303.632141 191.310379,302.966736 192.246536,302.279938 
	C192.474823,302.112427 192.538940,301.721191 192.786514,301.209839 
	C184.794312,297.170288 176.723618,293.279724 168.825317,289.066010 
	C136.337997,271.734314 107.671158,249.426041 82.852356,222.246521 
	C65.875366,203.654694 53.486423,182.525070 50.575474,157.083267 
	C46.512184,121.569939 60.769890,86.589890 99.765961,72.288635 
	C102.074402,71.442047 104.621529,71.246323 107.566978,70.906677 
	C104.941437,78.385429 101.302422,85.490959 99.942146,93.490364 
	C96.776474,112.106895 101.539169,129.135925 110.008530,145.459869 
	C119.172195,163.121979 133.596039,175.488266 150.773621,184.694931 
	C178.627686,199.623901 208.060745,209.600433 239.808945,212.304474 
	C244.899857,212.738083 248.888992,212.072922 252.748886,209.040634 
	C260.847443,202.678452 270.384827,202.585281 279.931061,203.268753 
	C290.046173,203.992966 300.112946,205.226730 310.155609,206.773193 
	C314.577423,207.454086 318.274109,212.240616 321.645355,211.010788 
	C325.554810,209.584641 329.235077,207.286301 333.560852,206.575302 
	C345.727722,204.575531 357.941956,203.224274 370.290924,203.085785 
	C376.315277,203.018219 382.274506,203.976471 386.812469,207.737061 
	C393.351532,213.155975 400.391083,212.671829 407.919617,211.763535 
	C436.533936,208.311279 463.382690,199.318604 488.860321,186.086136 
	C518.508301,170.687683 537.439026,147.197678 542.481445,113.604218 
	C544.716675,98.712013 541.213623,84.836670 534.060791,71.324158 
z"/>
<path fill="#050101" opacity="1.000000" stroke="none" 
	d="
M533.971497,71.019836 
	C533.822632,70.889755 533.727539,70.707993 533.632507,70.526230 
	C533.750366,70.545624 533.868286,70.565018 534.056946,70.722015 
	C534.127747,70.859612 534.025330,70.968155 533.971497,71.019836 
z"/>
<path fill="#050101" opacity="1.000000" stroke="none" 
	d="
M107.930511,70.921585 
	C108.066376,70.677597 108.296852,70.101532 108.214096,70.998001 
	C108.076370,71.065628 107.977432,70.971283 107.930511,70.921585 
z"/>
<path fill="#FC2200" opacity="1.000000" stroke="none" 
	d="
M361.717285,377.882263 
	C365.265228,385.072479 370.697205,390.243103 376.417053,395.637817 
	C375.473145,398.029663 373.292145,398.554016 371.275269,399.225677 
	C337.724243,410.399231 304.165863,410.538422 270.617737,399.200378 
	C268.891724,398.617065 267.143433,398.041534 265.588898,396.302368 
	C271.547699,390.085114 277.442322,384.007874 281.725952,376.090271 
	C281.158295,373.477753 282.366302,371.500763 283.117584,369.542480 
	C285.540588,363.226532 283.888031,357.747467 279.862518,352.781433 
	C275.517487,347.421234 270.262695,343.102264 264.203949,339.771454 
	C262.317230,338.734222 260.285950,337.858490 259.036407,335.443542 
	C259.043854,329.347046 260.049866,328.557068 266.812073,329.270691 
	C270.801544,329.692291 274.457825,329.765411 277.892944,330.889954 
	C283.604248,332.759613 288.291473,335.839508 289.694031,342.699127 
	C290.091248,344.189148 290.332336,345.312042 290.573395,346.434937 
	C294.847748,335.479462 299.137512,324.603210 300.249695,312.931702 
	C299.027832,313.323181 298.455017,312.724030 297.868896,312.122986 
	C281.847015,295.693604 262.747467,284.546295 240.551224,278.698669 
	C238.483612,278.154022 236.265778,277.974762 234.248810,276.259338 
	C233.739258,265.806854 236.995361,262.033936 247.613800,260.391693 
	C249.722031,260.065613 251.883423,260.083160 254.455933,259.929321 
	C257.000793,257.856293 259.542389,258.463196 261.959717,258.920990 
	C268.383362,260.137543 274.523163,262.153290 280.295959,266.096313 
	C280.799805,266.450592 280.992371,266.597748 281.701141,267.211853 
	C282.374664,267.835846 282.532013,267.992889 283.152924,268.598907 
	C283.927185,269.333008 284.245026,269.609924 284.817505,270.074707 
	C285.220856,270.414001 285.376923,270.557068 285.746399,270.936829 
	C286.586151,272.039948 287.217468,272.902710 288.073425,274.013855 
	C294.501740,281.256714 299.861694,288.777405 302.939789,298.113525 
	C304.911835,295.322327 303.699097,292.485107 304.197632,289.558350 
	C304.692688,288.310638 305.432770,287.431427 304.553040,286.041870 
	C304.345428,285.284180 304.362396,284.837128 304.634827,284.090881 
	C310.912842,284.361481 312.489227,278.039734 316.778656,275.886810 
	C314.407867,275.833374 313.402679,274.249969 312.752441,271.772339 
	C311.960114,276.918793 306.156708,276.301941 304.045715,280.189026 
	C302.237915,280.371246 301.250397,279.488708 300.302826,278.534790 
	C289.362305,267.521271 276.887878,259.046600 261.706604,254.936996 
	C257.357483,253.759674 254.092499,250.910324 253.776917,246.323471 
	C252.884186,233.348495 256.638580,221.496155 263.694580,210.236267 
	C263.954285,209.944473 264.000000,209.994446 263.977051,209.972137 
	C264.425781,209.583542 265.004852,209.516159 265.766724,209.177994 
	C275.445160,206.675537 284.900330,208.536789 294.246460,209.594101 
	C303.229340,210.610367 312.641418,211.272568 319.679474,218.349869 
	C320.761047,219.437439 321.799377,218.919266 322.723907,218.037003 
	C330.460876,210.653717 340.660797,210.768127 350.236389,209.199234 
	C355.140167,208.395782 360.188080,208.471725 365.587646,208.235489 
	C369.672089,212.686111 366.636261,217.469101 366.720947,222.387543 
	C364.092163,225.316681 361.722137,221.973206 358.969696,222.634995 
	C358.291718,225.079834 360.442078,226.644363 360.973541,230.077957 
	C362.877380,225.667908 366.972900,226.435028 369.210968,223.532898 
	C371.342346,221.536407 373.357880,219.994614 374.187408,217.312866 
	C375.041351,214.552307 377.392517,214.523834 380.131042,215.100189 
	C381.225006,215.666931 381.874878,216.237259 382.183197,217.018021 
	C385.555237,225.558044 388.794708,234.148132 388.533813,243.543839 
	C388.359711,249.813828 385.974365,253.372879 380.035889,254.979309 
	C366.991089,258.508057 356.101227,265.667328 345.972626,274.263733 
	C341.740479,277.855682 338.864441,282.166931 338.479706,288.232971 
	C338.662933,292.084320 338.224854,295.602081 339.185944,299.389313 
	C342.543182,287.377777 350.354004,278.505890 358.473328,269.391357 
	C366.195404,261.881500 375.399139,258.980194 385.936493,258.437805 
	C387.725128,258.605469 389.149933,258.535065 390.690491,259.663940 
	C392.652863,260.180450 394.293976,260.384766 395.913055,260.701874 
	C405.051208,262.491638 407.735901,265.675446 408.104309,275.599823 
	C406.724213,277.416046 405.044006,278.030243 403.213593,278.414734 
	C382.471619,282.771729 365.225098,293.806946 348.981018,306.779510 
	C346.627686,308.658905 345.301453,311.498474 342.376221,313.070557 
	C340.138306,313.870026 341.474670,315.168793 341.732758,316.146790 
	C343.847015,324.157867 346.069122,332.140503 348.281647,340.531189 
	C345.718903,342.755127 345.432343,345.658844 344.973267,348.391510 
	C344.019623,354.068237 344.092102,354.077820 338.707397,352.652679 
	C338.229309,352.526123 337.736145,352.391754 337.111572,352.742859 
	C335.835999,354.792786 339.360535,357.392212 336.276855,359.556122 
	C327.363220,361.926880 318.732574,362.046509 309.703583,360.557831 
	C309.077850,360.270447 308.780029,360.065033 308.486267,360.080841 
	C307.933136,360.110596 307.671844,359.391663 307.086090,359.599274 
	C307.536621,360.075836 308.190186,359.946686 309.059021,360.291687 
	C318.150085,362.298767 326.860321,361.817505 335.892853,359.731293 
	C340.888489,359.043304 344.003693,355.561981 347.469513,353.104553 
	C351.812622,350.025085 354.919128,345.372253 358.623779,341.458282 
	C359.409180,340.628510 359.876465,339.372284 361.041412,339.065552 
	C364.578735,338.134186 365.433685,335.380310 366.042297,331.959656 
	C367.665710,329.262665 370.320496,330.258362 372.702698,329.325195 
	C379.142242,327.658905 383.676025,324.313843 386.944427,318.775269 
	C389.883545,313.794769 393.583801,309.258759 397.015839,304.576202 
	C398.293182,302.833466 399.722778,301.179077 402.395081,300.699585 
	C406.802765,299.977417 408.947998,301.964294 410.032318,305.685760 
	C411.146149,309.508575 412.464325,313.260590 412.555878,317.314941 
	C412.714783,324.353607 410.617828,327.756531 404.124329,330.369537 
	C398.886871,332.477142 393.543396,334.292328 388.104492,335.828827 
	C378.941315,338.417328 371.242615,343.326172 364.553406,350.123199 
	C357.783325,357.002411 356.113251,364.510864 360.564758,373.575562 
	C361.296326,375.053162 361.488159,376.282196 361.717285,377.882263 
z"/>
<path fill="#A10000" opacity="1.000000" stroke="none" 
	d="
M259.668365,381.847443 
	C262.493256,385.972473 262.186188,389.489655 259.186401,393.334778 
	C254.651566,399.147491 254.928162,406.471222 254.284409,413.346832 
	C253.790634,418.620697 253.960876,423.954437 254.852280,429.263123 
	C255.451950,432.834320 256.754425,435.922913 258.918488,438.751892 
	C264.881592,446.547211 270.904175,454.304901 275.255219,463.180756 
	C275.929077,464.555450 276.856293,465.788788 278.303131,466.362885 
	C283.499878,468.424866 287.375488,471.660889 289.156677,477.221527 
	C289.868164,479.442719 292.262939,480.110107 294.279938,480.877106 
	C303.388000,484.340424 311.881592,488.810547 318.691620,495.955261 
	C320.274414,497.615814 321.440521,497.955719 323.155640,496.132141 
	C330.165924,488.678772 338.995544,484.134155 348.439545,480.616333 
	C350.888733,479.704010 352.932861,478.275848 353.642212,475.642242 
	C354.744476,471.549835 357.673737,469.075470 361.257660,467.596710 
	C364.632812,466.204132 366.521729,463.851868 368.020813,460.735138 
	C370.993896,454.553741 374.770416,448.650757 379.380096,443.786804 
	C388.474670,434.190552 388.463684,422.787628 387.523926,411.090607 
	C386.958374,404.051453 386.450775,396.877472 381.252014,391.043365 
	C379.092712,388.620117 380.358582,385.323242 381.716431,382.228271 
	C385.104858,381.368927 386.929871,383.642548 388.795258,385.336670 
	C400.071350,395.577271 405.517365,408.594208 406.547852,423.614471 
	C406.760101,426.708160 406.274139,429.850311 407.463287,433.063965 
	C418.330597,420.102142 426.346313,406.137238 423.906250,387.930115 
	C423.338959,385.198700 422.469543,382.969299 421.145447,380.519287 
	C420.309479,378.125183 418.734802,376.285034 419.610046,373.579071 
	C420.348846,373.486481 420.875305,373.697937 421.677429,374.017792 
	C426.519592,375.915283 429.425842,379.398346 431.752930,383.927856 
	C438.068787,394.584045 442.242340,405.703461 444.732300,418.761871 
	C449.264221,412.021027 449.033569,405.446747 449.234436,398.092621 
	C451.633423,400.698639 452.367493,403.216400 452.929291,405.641998 
	C455.430664,416.441528 454.572510,426.714203 448.256134,436.277832 
	C442.358673,445.207214 435.076630,453.007782 428.535706,461.407776 
	C426.550018,463.957886 425.529205,462.925720 424.143585,460.934509 
	C420.500214,455.699036 416.036316,451.237091 410.892792,447.462341 
	C408.354950,445.599884 405.620117,444.139740 401.985809,442.854309 
	C402.844971,447.052368 403.597992,450.560883 404.277283,454.083618 
	C406.203674,464.073090 404.921417,473.633057 400.264984,482.692780 
	C390.579224,501.537872 375.229279,515.650635 360.631714,530.681885 
	C358.743774,527.622437 358.993134,524.130432 356.771210,521.747986 
	C356.409943,521.837952 355.898132,521.864014 355.874298,521.985779 
	C352.875092,537.280396 343.042480,547.620056 330.817535,556.041077 
	C318.797272,564.321045 323.167633,564.375488 311.109833,555.962463 
	C301.475220,549.240112 292.759338,541.478394 288.549744,529.961731 
	C287.589722,527.335266 286.908966,524.606750 285.945221,521.413513 
	C282.977753,523.885315 283.283752,527.538513 281.459137,530.767517 
	C267.420380,516.369995 252.881271,502.763519 242.974319,485.139496 
	C238.076080,476.425751 236.001953,467.151581 237.146271,457.273773 
	C237.674698,452.712463 238.918533,448.234039 239.982864,443.006439 
	C231.419052,445.791168 225.671402,451.395905 220.441376,457.559143 
	C215.149841,463.794800 215.275909,463.906036 210.129929,457.370087 
	C204.573196,450.312500 198.443512,443.710114 193.630325,436.062469 
	C186.391342,424.560547 186.022827,412.626587 191.014786,400.268219 
	C191.254272,399.675293 191.430389,398.982178 192.772522,399.027313 
	C192.970718,405.386871 192.713257,411.998016 197.088181,418.550842 
	C201.422531,400.711304 206.391907,384.190491 221.855469,373.317047 
	C223.401169,374.960358 222.628540,376.508881 221.830383,377.966034 
	C214.707123,390.970490 217.062592,403.790283 223.045547,416.252686 
	C225.895309,422.188690 229.069199,428.111816 234.254852,433.342316 
	C235.067673,429.450958 235.199020,425.954346 235.508896,422.454163 
	C236.754913,408.378967 241.886627,396.024261 252.261490,386.156403 
	C254.287216,384.229706 256.343628,382.192810 259.668365,381.847443 
z"/>
<path fill="#FB2100" opacity="1.000000" stroke="none" 
	d="
M173.719223,201.484756 
	C187.632477,205.673981 201.032547,210.712814 214.851028,214.502258 
	C221.940659,216.446442 229.121948,217.802551 236.356140,218.908081 
	C239.998199,219.464661 240.983276,221.130692 240.503067,224.703705 
	C239.244354,234.069046 239.402496,233.937332 230.239502,232.276596 
	C214.273544,229.382812 199.071503,223.935303 183.774277,218.776535 
	C181.608063,218.046021 179.561401,216.801147 176.921631,217.445175 
	C191.792236,226.865707 207.960770,233.553070 224.712799,239.854263 
	C226.968460,243.234024 228.850433,246.428955 228.566635,250.705292 
	C226.857407,252.539917 225.006363,252.281128 223.214752,251.875626 
	C185.775665,243.402008 150.588028,229.957611 120.628639,205.100494 
	C109.589760,195.941605 99.367805,185.969910 90.634201,174.520004 
	C81.842537,162.993958 78.428291,149.551193 76.459732,135.587173 
	C74.506149,121.729424 76.878860,108.425072 82.109909,95.576775 
	C84.445541,89.840065 87.321831,84.404655 92.762009,80.317368 
	C93.046616,80.051384 93.001709,80.000305 93.022614,80.025864 
	C93.428665,79.557404 94.049919,79.526894 94.689240,79.019272 
	C96.675758,77.730263 98.533379,76.700752 101.346916,75.141464 
	C99.679428,79.984970 98.088219,83.740677 97.089203,87.647812 
	C90.043076,115.205002 97.974846,139.405518 114.722855,161.099716 
	C128.202011,178.559692 146.805145,189.354553 166.927216,198.355789 
	C168.015976,200.196854 166.654877,200.707825 165.676498,201.072266 
	C163.503891,201.881577 161.960510,203.162766 161.183365,205.400452 
	C160.717117,206.742874 159.750259,207.933899 158.210098,207.442444 
	C155.771149,206.664200 154.805664,207.391098 154.805130,209.878494 
	C154.804703,211.878754 154.349197,214.160995 156.908875,214.864990 
	C159.145935,215.480286 160.287872,213.883148 160.853958,211.979202 
	C161.377609,210.218018 162.449051,209.124985 164.157349,208.546692 
	C165.454910,208.107422 166.816208,207.446960 167.097290,206.064560 
	C167.827591,202.472900 170.583145,202.070740 173.719223,201.484756 
z"/>
<path fill="#FA2100" opacity="1.000000" stroke="none" 
	d="
M409.477325,252.185883 
	C405.272552,241.450729 405.854004,243.375610 414.540039,240.533981 
	C431.050079,235.132706 446.816345,228.021606 462.136444,219.884476 
	C463.261017,219.287155 464.262543,218.458084 466.022156,217.259262 
	C462.793030,216.501541 460.832306,217.871506 458.839630,218.560425 
	C441.995636,224.383682 425.127014,230.047134 407.511536,233.240738 
	C403.585693,233.952484 402.329376,232.784409 402.116638,229.280777 
	C402.066193,228.450333 401.939911,227.623825 401.832031,226.797653 
	C400.930664,219.893219 400.926422,219.876999 407.983307,218.555069 
	C436.798401,213.157318 464.562500,204.318436 490.519287,190.766464 
	C519.850769,175.452576 540.234009,152.496582 546.407532,118.909538 
	C549.098938,104.266861 547.082886,90.104134 540.484131,75.759811 
	C543.991882,76.465965 546.074158,78.384949 548.702148,79.807144 
	C560.355286,89.769760 563.603821,103.240494 565.443665,117.136856 
	C565.985718,121.231049 567.598389,125.593277 565.247559,130.092072 
	C562.163879,131.731720 559.117981,132.802872 557.891846,136.164963 
	C557.671570,136.768753 557.064941,137.454147 556.414917,137.376862 
	C548.665100,136.455429 552.301086,141.708038 552.287964,144.955627 
	C552.285950,145.443604 552.443359,145.937332 552.327576,146.772476 
	C550.552124,148.566269 548.870178,147.713501 547.159912,147.163681 
	C545.981995,146.784988 544.623230,145.504379 543.576355,146.749359 
	C542.651428,147.849335 543.757385,149.214386 544.229248,150.394196 
	C544.524902,151.133392 544.774963,151.954071 545.962280,152.532532 
	C547.029602,149.484436 550.576111,149.469330 552.662354,146.940491 
	C554.952209,145.159821 557.472351,144.211594 558.223572,141.225357 
	C558.765747,139.070084 560.561401,138.673355 562.892151,139.486572 
	C564.879822,141.853073 563.864868,144.126556 563.477356,146.389832 
	C561.000000,160.858353 553.723633,172.824356 544.043457,183.504532 
	C524.651611,204.899658 501.850311,221.629318 475.462158,233.421753 
	C473.945709,234.099426 472.472412,234.936554 470.366638,234.543671 
	C467.851501,231.457199 468.450012,228.922348 471.820557,227.820221 
	C475.382996,226.655350 473.647125,224.813110 472.950653,223.008682 
	C472.211700,221.094193 471.151520,221.444824 470.049011,222.725281 
	C465.927185,227.512344 465.927246,227.512405 460.888306,229.267090 
	C460.573700,230.990555 462.681183,231.994202 462.138123,234.051361 
	C459.086151,235.968994 454.734436,235.578476 453.874786,240.524750 
	C452.081238,243.008499 449.652374,243.660873 447.268433,244.383804 
	C437.421631,247.369797 427.428223,249.823151 417.508636,252.544632 
	C414.963013,253.243027 412.348480,254.050140 409.477325,252.185883 
z"/>
<path fill="#A00100" opacity="1.000000" stroke="none" 
	d="
M409.194702,252.293091 
	C416.118958,252.398254 422.361969,249.300247 428.884674,247.717316 
	C436.873688,245.778519 444.903107,243.809631 452.813354,240.432709 
	C455.330750,237.183548 459.252258,237.332687 462.434509,235.273224 
	C464.922943,234.485123 466.996796,233.512756 469.659363,233.824097 
	C486.505005,227.480713 501.570587,218.446960 515.639282,207.732025 
	C528.255920,198.122940 539.454102,187.062653 549.330933,174.614563 
	C557.244080,164.641449 560.929443,153.088165 563.034668,140.418030 
	C561.730103,136.829376 561.877930,133.722351 563.786926,130.355988 
	C565.674500,124.271675 564.217773,118.557365 563.326904,112.985641 
	C561.419617,101.056061 557.027222,90.043251 548.970459,80.394585 
	C566.162170,89.109032 577.662048,102.923950 582.918091,121.669998 
	C590.450439,148.534424 584.689758,173.356277 570.324280,196.843109 
	C572.828308,186.715256 575.595825,176.510025 577.398621,166.072418 
	C577.876465,163.306015 578.131592,160.501144 578.567017,157.256409 
	C578.161011,156.017944 577.924744,155.206833 578.330566,154.314301 
	C577.851807,154.974655 578.001343,155.887436 577.247375,156.776062 
	C565.575134,191.800552 544.836670,219.320206 513.895752,239.269531 
	C493.904694,252.158844 473.183411,263.267120 450.096436,269.417542 
	C443.870300,271.076202 437.443726,271.982483 430.534760,273.347595 
	C431.429474,271.379486 432.744873,271.281616 433.824005,270.831055 
	C455.325653,261.853851 476.878479,252.972458 496.748657,240.609985 
	C515.843567,228.729813 532.585938,214.142288 547.007690,196.432617 
	C547.397095,194.865646 548.042419,193.834488 549.223755,192.783005 
	C549.701355,192.302673 549.970276,192.032867 550.430420,191.573334 
	C550.863281,191.135361 551.093140,190.876785 551.389648,190.374695 
	C551.470581,190.143768 551.936462,190.004608 551.698914,190.045059 
	C551.392273,190.420273 551.234009,190.709091 550.828369,191.159866 
	C550.383179,191.614365 550.120483,191.874603 549.651855,192.343475 
	C548.561157,193.377213 547.811279,194.379684 546.293823,194.873871 
	C521.583557,217.754272 493.063232,234.003677 462.610718,247.042389 
	C447.726807,253.415176 431.907135,256.797028 416.079773,259.945435 
	C410.105835,261.133789 411.088074,255.497421 409.194702,252.293091 
z"/>
<path fill="#A00000" opacity="1.000000" stroke="none" 
	d="
M92.693016,80.050453 
	C88.984543,86.467789 84.302986,92.512444 82.001350,99.937950 
	C73.292023,128.035873 76.353256,154.429672 95.170616,177.497162 
	C123.374458,212.071182 160.354492,233.201599 202.993576,244.974701 
	C211.000122,247.185394 219.095551,249.074188 227.559021,251.124771 
	C229.587906,250.715073 231.139084,250.550430 232.112946,252.649734 
	C230.665512,260.421692 230.183197,260.564423 222.980881,259.274994 
	C178.340775,251.283157 139.810562,230.551819 104.680008,202.713654 
	C101.821915,200.448837 99.246635,197.827118 96.260071,195.193970 
	C94.777023,194.575989 93.759308,193.865646 92.697876,192.693634 
	C92.206177,192.203812 91.929443,191.926788 91.452332,191.453674 
	C91.006767,190.988190 90.790321,190.697693 90.542465,190.129730 
	C90.310318,189.825882 90.146210,189.772751 90.221970,189.825562 
	C90.541039,190.287521 90.702682,190.603180 91.115555,191.096878 
	C91.574921,191.578171 91.847359,191.850357 92.331635,192.336731 
	C93.381393,193.451035 94.433403,194.201965 94.727631,195.846527 
	C112.314461,218.076340 133.887619,234.983200 158.508667,248.232178 
	C174.661438,256.924255 191.608215,263.816101 208.464722,270.931366 
	C209.360062,271.309296 210.248184,271.704376 211.419296,272.212860 
	C196.147095,274.891785 153.908997,257.173431 122.107056,235.146423 
	C94.236824,215.842636 75.977646,189.534714 65.042740,157.384796 
	C63.949299,156.349899 64.310104,154.943710 62.727840,153.368591 
	C64.048393,154.798080 63.888870,155.502502 63.522217,156.508911 
	C64.881676,170.352432 67.894951,183.558884 72.574844,196.797989 
	C72.444908,197.241776 72.145897,197.310776 71.434258,197.175751 
	C60.978634,179.113449 54.538246,160.320114 55.966133,139.451187 
	C57.754704,113.310806 69.534164,93.309952 92.693016,80.050453 
z"/>
<path fill="#9D0101" opacity="1.000000" stroke="none" 
	d="
M265.044830,396.014648 
	C276.470398,399.194763 287.576691,402.308685 299.065033,404.215698 
	C323.021912,408.192383 346.217621,405.035400 369.155670,398.134338 
	C371.378174,397.465698 373.581970,396.734741 376.215332,395.976166 
	C378.882874,396.899719 379.728607,398.878998 379.987457,401.069275 
	C381.978790,417.920349 375.810913,431.612335 363.677551,442.993835 
	C362.417297,444.176025 361.144226,444.507812 359.617432,443.805267 
	C352.835266,440.684601 345.525726,440.333374 336.702484,439.711853 
	C343.908234,436.392731 349.860962,433.706329 355.762421,430.911652 
	C359.336029,429.219360 363.265289,428.049927 365.901611,424.338531 
	C361.803497,424.024750 358.268494,427.357941 353.332397,426.726135 
	C356.990936,422.797913 360.294586,419.180145 363.683777,415.644348 
	C365.168488,414.095459 367.160492,413.909821 369.612579,414.032837 
	C368.390015,409.023163 360.797760,406.949585 355.616333,410.418243 
	C351.495117,413.177246 347.579620,416.316223 343.906525,419.653778 
	C339.207062,423.923950 333.840881,425.904053 327.580841,425.739929 
	C327.083130,425.726898 326.578613,425.683228 326.087708,425.741425 
	C312.476929,427.355377 300.580139,424.311554 290.949799,413.810699 
	C286.804779,409.290985 281.444733,407.156311 275.170837,409.992493 
	C273.620667,410.693298 272.062103,411.256866 271.923889,413.623199 
	C275.582123,413.625793 278.242371,415.022919 280.505646,417.872406 
	C282.913177,420.903534 285.737457,423.603668 288.796814,426.897369 
	C284.003662,426.987366 280.537354,424.786835 276.387512,423.965759 
	C278.140808,428.083221 282.424500,429.059753 286.089050,430.837494 
	C291.989014,433.699615 297.997986,436.337036 305.267456,439.668121 
	C296.381714,440.370087 288.941864,440.729340 282.062042,443.909851 
	C280.185883,444.777191 278.994843,443.614960 277.743073,442.396271 
	C266.567657,431.516144 260.323883,418.710907 261.864471,402.718628 
	C262.115784,400.109955 262.661560,397.832947 265.044830,396.014648 
z"/>
<path fill="#FB2100" opacity="1.000000" stroke="none" 
	d="
M259.971436,381.640930 
	C244.730179,392.275879 237.828949,407.092133 236.957642,425.058167 
	C236.822617,427.842468 235.492813,430.561859 236.555450,433.446442 
	C236.917831,434.430145 237.432434,435.905487 235.929733,436.463776 
	C234.863464,436.859894 234.160339,435.746185 233.514709,435.049774 
	C227.557632,428.624268 223.423706,421.036041 219.948792,413.097626 
	C214.101791,399.740173 214.357178,386.638855 222.179474,373.659058 
	C222.419235,373.034637 222.647446,372.763336 223.110016,372.361938 
	C223.418015,371.482391 224.096573,371.545074 224.768555,371.130859 
	C226.096375,370.237946 227.219177,369.537903 228.671600,368.919525 
	C228.767151,373.153259 224.785706,376.105682 225.245682,381.510315 
	C229.193008,375.850464 233.946838,372.410583 239.368820,369.708893 
	C242.568298,368.114655 245.298950,368.221619 248.200470,370.161957 
	C252.755478,373.208130 257.562866,375.955811 259.971436,381.640930 
z"/>
<path fill="#FA2100" opacity="1.000000" stroke="none" 
	d="
M424.675232,386.791199 
	C427.833374,396.701843 425.299194,405.812744 421.466644,414.577454 
	C418.266663,421.895569 414.218384,428.818176 408.764374,434.775116 
	C408.034393,435.572449 407.278595,436.933838 405.966400,436.395752 
	C404.622223,435.844543 405.141327,434.351227 405.158844,433.262085 
	C405.292877,424.915131 404.911255,416.709198 402.174500,408.637970 
	C398.453644,397.664459 392.044678,388.892944 382.298309,382.127563 
	C383.510864,376.786560 387.993774,374.400665 391.856995,371.326782 
	C396.478485,367.649506 400.720520,368.278656 405.468597,371.116058 
	C409.735474,373.665894 413.217651,377.009277 417.066528,381.401306 
	C416.644318,376.002930 413.708618,372.622742 411.941620,367.883148 
	C415.289917,369.215698 417.322388,371.033844 419.622498,373.006836 
	C419.601349,375.611725 421.901825,376.959137 422.163239,379.480347 
	C422.623596,383.455261 421.607849,385.904480 417.508057,386.522858 
	C415.437744,386.835083 414.701874,389.235107 412.826904,390.613159 
	C409.095490,392.842194 409.095490,392.842194 413.623718,396.038727 
	C413.307800,394.659485 411.866089,393.650177 412.863098,391.882874 
	C414.035339,391.137207 415.016479,391.253662 415.941833,391.585022 
	C418.790863,392.605377 420.646637,391.735687 421.664978,388.861206 
	C422.101044,387.630341 422.726471,386.414520 424.675232,386.791199 
z"/>
<path fill="#A10100" opacity="1.000000" stroke="none" 
	d="
M259.725647,335.694702 
	C267.461182,339.466431 274.041016,344.110931 279.726501,350.170410 
	C287.084198,358.012085 287.254303,366.348602 282.151367,375.554382 
	C277.689117,376.173828 275.622070,380.415192 270.885193,381.979431 
	C270.885193,377.928589 270.887878,374.229218 270.884674,370.529846 
	C270.874634,358.840546 265.120392,350.297363 254.461548,345.617096 
	C249.265701,343.335663 244.047302,340.964813 238.517136,339.934235 
	C231.281357,338.585846 227.946732,332.904602 223.711166,328.129608 
	C222.472153,326.732788 222.785675,324.932739 223.400330,323.371582 
	C226.139816,316.413513 228.955826,309.485321 231.782333,302.561920 
	C233.147995,299.216797 235.978195,299.962402 238.943054,300.440308 
	C234.365204,305.304352 232.860382,311.319000 232.620636,317.756500 
	C232.425278,323.002838 233.995636,325.270844 238.857666,327.385956 
	C244.517944,329.848358 250.526535,331.315033 256.659973,333.564941 
	C258.043427,333.962311 258.798706,334.625122 259.725647,335.694702 
z"/>
<path fill="#A10100" opacity="1.000000" stroke="none" 
	d="
M360.046936,375.192200 
	C354.262543,365.456787 355.160339,358.085938 362.382721,350.074921 
	C370.113586,341.499908 379.734131,336.319122 390.696716,333.222870 
	C395.164337,331.961029 399.579712,330.469238 403.926025,328.835175 
	C408.682892,327.046753 411.593262,323.998291 411.187073,318.315125 
	C410.862305,313.771179 409.658875,309.489899 408.451538,305.188171 
	C407.785583,302.815460 406.193268,301.126709 403.123901,300.777771 
	C406.948364,298.977020 409.565552,300.161163 411.142761,304.587189 
	C413.256012,310.517731 415.808746,316.293457 418.231293,322.111298 
	C419.522247,325.211639 418.790894,327.547546 416.694458,330.261078 
	C412.562683,335.608978 407.657013,339.098999 400.989868,340.723907 
	C395.713715,342.009796 390.557281,344.112000 385.635498,346.456024 
	C376.656494,350.732300 371.899323,358.207275 371.168488,368.067261 
	C370.840637,372.490479 371.112976,376.958160 371.112976,381.878632 
	C367.758972,380.985687 365.963379,378.690002 363.371826,377.078400 
	C362.068512,376.558899 361.059662,376.204712 360.046936,375.192200 
z"/>
<path fill="#A20101" opacity="1.000000" stroke="none" 
	d="
M233.901672,276.458130 
	C247.907196,277.822632 260.433258,283.437683 272.499420,290.302338 
	C280.043671,294.594360 286.739227,300.094116 293.663330,305.257172 
	C296.168213,307.124969 298.552521,309.311096 299.741516,312.762573 
	C294.855774,318.514099 291.993225,319.128418 285.768158,315.344727 
	C281.812256,312.940277 278.165283,310.027374 274.382141,307.339142 
	C264.469299,300.295197 253.812775,294.678589 242.520325,290.144012 
	C233.857391,286.665375 233.730209,286.109406 233.901672,276.458130 
z"/>
<path fill="#A20000" opacity="1.000000" stroke="none" 
	d="
M342.129608,313.315369 
	C344.169952,308.286835 348.191467,305.397919 352.133911,302.346954 
	C366.569916,291.175354 382.035797,282.032135 399.927246,277.555115 
	C402.333160,276.953064 404.790222,276.555389 407.629150,276.041595 
	C408.547424,285.931915 408.409149,286.684113 399.333191,290.194641 
	C384.602844,295.892181 371.514465,304.256104 358.941040,313.616211 
	C351.479736,319.170685 348.590851,319.070435 342.129608,313.315369 
z"/>
<path fill="#A10100" opacity="1.000000" stroke="none" 
	d="
M386.438904,259.723358 
	C376.414124,260.477051 367.397308,262.835815 359.879852,269.939911 
	C355.039520,273.835938 350.516388,277.665314 346.740295,282.328033 
	C344.385803,285.235382 342.223755,288.525391 337.889465,289.516479 
	C335.520691,282.955536 339.173462,278.265228 343.319336,274.544067 
	C353.883301,265.062347 365.417572,256.976807 379.594543,253.626465 
	C384.706665,252.418350 386.954742,249.129410 387.079651,243.926865 
	C387.313660,234.181137 383.543549,225.445480 380.285461,216.246307 
	C378.054047,214.239822 376.193298,212.406448 375.864258,209.308258 
	C383.620209,211.266022 390.019318,214.925247 392.523926,223.169067 
	C395.239807,232.108215 396.462708,241.344147 398.053864,250.507507 
	C398.941620,255.619934 395.016724,256.936584 391.271667,258.781555 
	C389.695007,260.084442 388.135651,259.194489 386.438904,259.723358 
z"/>
<path fill="#A20202" opacity="1.000000" stroke="none" 
	d="
M281.007660,268.142151 
	C273.063324,263.392731 265.018097,259.834839 255.331650,259.991241 
	C243.129135,255.544037 243.080627,255.536011 245.156631,242.979187 
	C245.992737,237.921936 247.230682,232.930466 248.043610,227.870178 
	C249.503952,218.779968 254.778381,213.034775 263.592773,209.932587 
	C261.228790,217.240616 258.299469,224.467453 256.460693,232.064423 
	C256.069366,233.681244 255.419510,235.270782 255.276855,236.906738 
	C254.417297,246.763763 254.362000,251.641327 265.710968,254.741867 
	C280.738098,258.847260 293.201263,267.845520 303.588440,280.051758 
	C305.243347,280.838074 305.745117,281.887878 305.306580,283.667358 
	C305.112885,284.444885 305.109833,284.890320 305.153870,285.666748 
	C305.457245,286.423950 305.586823,286.883667 305.438599,287.722687 
	C302.786896,289.568481 301.271484,287.671631 299.798492,286.251740 
	C295.663757,282.266113 291.545990,278.256561 287.467468,273.731445 
	C286.415558,273.006866 286.068115,272.121124 285.184021,271.266205 
	C284.930725,271.050476 284.983704,271.000061 284.975159,271.035614 
	C284.585785,270.551788 283.980530,270.507416 283.186615,270.184845 
	C282.942474,270.024048 282.994873,269.996613 282.997559,270.026062 
	C282.786835,269.797119 282.560638,269.550446 282.127991,269.155029 
	C281.936371,268.992554 282.007294,268.988007 282.010925,269.023376 
	C281.781006,268.777100 281.521851,268.521362 281.007660,268.142151 
z"/>
<path fill="#9C0000" opacity="1.000000" stroke="none" 
	d="
M301.423950,458.651733 
	C300.035187,457.976685 298.893280,457.603790 297.965057,456.934509 
	C295.871674,455.425171 295.521118,452.832886 295.373077,450.694275 
	C295.211456,448.359680 298.015167,448.507141 299.589874,448.174042 
	C313.726257,445.183929 327.916046,445.151031 342.059570,448.103485 
	C343.747864,448.455963 346.837250,448.193787 346.584412,450.837067 
	C346.353180,453.254028 346.046936,456.242157 343.060974,457.545715 
	C339.863678,458.941528 336.698975,460.381744 333.267639,461.163513 
	C329.373779,462.050720 325.479767,462.963440 322.879852,466.475647 
	C322.196228,467.399139 320.928680,468.455292 319.975220,467.190338 
	C315.377014,461.090149 307.711578,461.856720 301.423950,458.651733 
z"/>
<path fill="#F32101" opacity="1.000000" stroke="none" 
	d="
M457.515747,312.471436 
	C470.634277,322.189270 480.945709,333.813507 487.919647,348.317596 
	C475.024475,337.912323 461.695862,328.252686 447.180298,320.348541 
	C437.732300,315.203918 429.466644,308.615082 422.157227,300.772095 
	C421.610413,300.185303 421.113647,299.551910 419.991302,298.231720 
	C434.136627,299.995636 446.469940,303.993530 457.515747,312.471436 
z"/>
<path fill="#F42000" opacity="1.000000" stroke="none" 
	d="
M155.135422,346.247437 
	C169.934738,320.477081 190.351944,302.260498 222.158752,298.091553 
	C216.325623,304.533508 211.018356,310.105865 204.467560,314.303558 
	C191.017120,322.922424 176.756226,330.297485 164.359787,340.530243 
	C162.177505,342.331604 159.958710,344.088776 157.465302,346.034454 
	C156.637802,346.431458 156.079239,346.523102 155.135422,346.247437 
z"/>
<path fill="#FB2100" opacity="1.000000" stroke="none" 
	d="
M257.231232,334.648438 
	C250.507690,333.417938 244.232559,331.238129 238.038132,328.842926 
	C233.292404,327.007843 230.397522,323.964325 230.810944,318.287140 
	C231.141785,313.743988 232.343872,309.461945 233.551285,305.159851 
	C234.217941,302.784515 235.819977,301.105438 238.893509,300.772278 
	C242.432053,300.967712 244.142685,303.326385 245.775940,305.562500 
	C249.566727,310.752533 253.177704,316.073853 256.929230,321.681000 
	C253.378113,326.289337 258.115662,330.245300 257.231232,334.648438 
z"/>
<path fill="#FA2C05" opacity="1.000000" stroke="none" 
	d="
M366.685059,331.621643 
	C366.966461,335.785065 367.232300,339.845459 361.610748,340.179901 
	C361.116913,340.209290 360.516357,340.868103 360.217560,341.381378 
	C356.831177,347.198822 351.699982,351.446503 346.828827,355.845581 
	C344.654449,357.809235 340.787811,357.428406 340.347626,361.963959 
	C340.195923,363.526947 338.383606,361.001007 337.061340,360.109070 
	C336.667694,359.766571 336.563934,359.616302 336.692993,359.321716 
	C336.958557,357.251831 335.772003,355.776306 335.064270,354.123413 
	C334.621857,353.090118 333.812714,352.047394 334.832275,350.938416 
	C335.947571,349.725250 337.193298,350.138092 338.450684,350.738586 
	C339.916046,351.438477 341.403351,352.092529 343.792145,353.181946 
	C341.702850,348.784576 344.996552,345.697968 344.356689,341.847931 
	C343.898743,339.092743 346.423828,341.153473 347.938599,340.918640 
	C349.056244,342.741821 349.807709,344.552948 350.571411,346.393646 
	C352.360535,346.129028 351.527802,344.585876 352.049042,343.357971 
	C354.613129,335.180542 359.261261,331.385132 366.685059,331.621643 
z"/>
<path fill="#FA2C05" opacity="1.000000" stroke="none" 
	d="
M173.693542,201.109528 
	C169.593826,202.684113 169.482574,208.633163 165.116028,209.855545 
	C163.261368,210.374756 162.639374,210.545258 162.476761,212.816544 
	C162.272888,215.664459 159.832367,217.351044 156.742813,216.900162 
	C153.676727,216.452667 152.810898,214.209534 153.034195,211.423050 
	C153.138519,210.121246 153.787323,208.754654 153.537949,207.552551 
	C152.671600,203.376114 154.088318,203.346802 156.941086,205.452591 
	C157.966125,206.209213 159.683182,207.556793 159.749847,205.352448 
	C159.898514,200.436401 163.558304,200.270767 166.960983,198.893097 
	C169.253571,199.353165 171.313965,200.137711 173.693542,201.109528 
z"/>
<path fill="#FA2C05" opacity="1.000000" stroke="none" 
	d="
M375.694458,208.857239 
	C377.264160,211.131760 379.480377,212.671829 380.009705,215.639099 
	C377.926331,216.230774 375.110107,214.885010 375.439758,219.318390 
	C375.596161,221.421799 372.691681,222.701813 370.305542,223.859406 
	C368.648987,225.003876 367.323578,225.230484 366.020569,223.449371 
	C364.461273,218.364838 367.272980,213.725311 366.003540,208.703094 
	C366.447144,208.252304 366.889832,208.183838 367.660828,208.201141 
	C369.064148,209.203751 370.093781,210.458038 371.765533,208.560791 
	C373.131592,208.483795 374.252106,208.607391 375.694458,208.857239 
z"/>
<path fill="#E9E9E9" opacity="1.000000" stroke="none" 
	d="
M271.516113,318.290161 
	C262.998993,318.269104 259.416565,312.848877 256.301941,305.292969 
	C263.473145,307.783203 269.265381,311.122467 274.076752,315.652527 
	C277.023834,318.427277 273.044830,317.697784 271.516113,318.290161 
z"/>
<path fill="#E9E9E9" opacity="1.000000" stroke="none" 
	d="
M383.254486,310.463074 
	C380.240723,316.132935 375.766937,318.611572 369.718597,318.209564 
	C368.772827,318.146698 367.557404,318.232056 367.112640,317.195404 
	C366.595642,315.990417 367.782318,315.491669 368.529449,314.937592 
	C373.552612,311.212463 378.706787,307.710571 384.801727,305.611542 
	C385.573792,307.643066 384.032776,308.761444 383.254486,310.463074 
z"/>
<path fill="#A20202" opacity="1.000000" stroke="none" 
	d="
M367.226410,331.647552 
	C360.220032,332.807404 355.753845,336.803436 352.379608,342.807434 
	C351.597839,339.821655 352.725739,336.807617 353.319122,333.775238 
	C353.966248,330.468170 356.295441,328.848114 359.780975,328.933716 
	C363.893921,329.034821 368.010101,329.004852 372.590851,329.110046 
	C371.564880,330.854187 369.326630,330.652100 367.226410,331.647552 
z"/>
<path fill="#9D0101" opacity="1.000000" stroke="none" 
	d="
M289.914551,342.646179 
	C285.529449,334.405914 277.617920,331.512665 268.460022,329.979156 
	C267.869263,329.825043 267.670349,329.683624 267.713196,329.267273 
	C272.084442,328.980438 276.214111,328.990570 280.343292,328.951416 
	C286.703705,328.891113 288.061890,330.002625 289.141693,336.351624 
	C289.473206,338.300873 289.702728,340.267487 289.914551,342.646179 
z"/>
<path fill="#FA2C05" opacity="1.000000" stroke="none" 
	d="
M232.292068,252.786957 
	C231.182144,251.725037 229.566605,252.273880 228.215469,251.356232 
	C228.244904,247.349686 223.968369,244.875305 225.007050,240.467453 
	C225.498306,240.105804 226.008606,240.066483 226.472473,240.194901 
	C236.362106,242.932922 236.361099,242.936584 232.292068,252.786957 
z"/>
<path fill="#FA2C05" opacity="1.000000" stroke="none" 
	d="
M267.633789,328.854218 
	C267.954987,328.992371 267.990356,329.482117 268.029266,329.724304 
	C264.547913,330.391968 259.383606,328.250519 259.998352,335.548889 
	C259.185425,335.716339 258.373657,335.469055 257.281555,335.057617 
	C256.072632,332.419434 255.397659,329.808319 254.152771,327.505249 
	C252.506943,324.460419 253.880127,323.283020 256.768829,322.268036 
	C259.687836,325.403809 263.319458,327.338409 267.633789,328.854218 
z"/>
<path fill="#100200" opacity="1.000000" stroke="none" 
	d="
M431.946472,383.886108 
	C428.683105,381.064209 425.484039,377.876862 422.119019,374.407837 
	C422.503143,373.065613 423.651703,371.609741 424.470428,372.519379 
	C427.450073,375.829987 432.057098,374.288696 435.871613,376.925415 
	C431.878418,377.814453 432.695160,381.020416 431.946472,383.886108 
z"/>
<path fill="#FC2200" opacity="1.000000" stroke="none" 
	d="
M371.617767,208.252808 
	C371.625366,209.769424 372.958557,212.131027 370.735382,212.406677 
	C369.108978,212.608322 368.154724,210.768799 368.003113,208.635544 
	C369.067596,208.239716 370.146027,208.192551 371.617767,208.252808 
z"/>
<path fill="#4C0000" opacity="1.000000" stroke="none" 
	d="
M577.434204,156.972443 
	C577.468445,154.856171 577.907227,152.688324 578.346069,150.520493 
	C578.694702,150.579437 579.043335,150.638367 579.391968,150.697311 
	C579.233704,152.539429 579.075439,154.381546 578.781128,156.511276 
	C578.376343,156.839539 578.107544,156.880203 577.434204,156.972443 
z"/>
<path fill="#4C0000" opacity="1.000000" stroke="none" 
	d="
M63.757019,156.866272 
	C63.057194,154.776459 62.759777,152.746506 62.266930,149.382690 
	C64.456741,152.202896 64.458733,154.334152 64.979332,156.644379 
	C64.697701,156.993271 64.428566,156.959702 63.757019,156.866272 
z"/>
<path fill="#4C0000" opacity="1.000000" stroke="none" 
	d="
M569.533630,198.708069 
	C569.075989,200.855652 568.441467,202.921371 566.416016,204.544128 
	C565.870178,202.271652 567.189331,200.912079 568.287231,199.206604 
	C568.741089,198.836960 568.958740,198.676102 569.533630,198.708069 
z"/>
<path fill="#380600" opacity="1.000000" stroke="none" 
	d="
M546.258850,195.152161 
	C546.700806,193.622787 547.819519,192.666412 549.657349,192.033264 
	C549.856323,193.713654 548.772827,194.749573 547.449463,195.975327 
	C546.955017,195.861069 546.726624,195.574738 546.258850,195.152161 
z"/>
<path fill="#380600" opacity="1.000000" stroke="none" 
	d="
M94.968628,195.914139 
	C93.540504,195.306503 92.636047,194.147400 92.107010,192.262009 
	C93.809669,192.113205 94.744110,193.294098 95.842911,194.728546 
	C95.692444,195.238342 95.404663,195.459976 94.968628,195.914139 
z"/>
<path fill="#4C0000" opacity="1.000000" stroke="none" 
	d="
M71.114517,197.279037 
	C71.307938,196.999222 71.594238,197.026733 72.312233,197.113495 
	C73.665016,197.985886 74.035057,199.051208 73.952972,200.724075 
	C72.407623,200.357269 71.928558,198.886612 71.114517,197.279037 
z"/>
<path fill="#380600" opacity="1.000000" stroke="none" 
	d="
M359.870483,375.315796 
	C361.045441,374.836212 361.915863,375.522247 362.908813,376.613159 
	C362.770844,377.165955 362.455322,377.435425 361.975586,377.972046 
	C361.190948,377.370514 360.570526,376.501801 359.870483,375.315796 
z"/>
<path fill="#380600" opacity="1.000000" stroke="none" 
	d="
M386.525269,259.941833 
	C387.253815,258.649231 388.801056,259.032440 390.581299,258.898407 
	C390.963898,259.092743 390.976288,259.258942 391.005280,259.674622 
	C389.658844,259.943848 388.295746,259.963593 386.525269,259.941833 
z"/>
<path fill="#A20202" opacity="1.000000" stroke="none" 
	d="
M154.513367,346.244934 
	C155.305679,346.066650 155.838699,346.115997 156.772766,346.183960 
	C156.459534,347.165497 155.854553,348.469574 154.387939,348.086548 
	C153.641663,347.891663 154.072433,347.044891 154.513367,346.244934 
z"/>
<path fill="#A00100" opacity="1.000000" stroke="none" 
	d="
M569.960815,198.620117 
	C569.664001,198.918060 569.437073,198.935257 568.866821,198.975143 
	C568.797607,198.421570 569.071777,197.845306 569.588562,197.065491 
	C569.831177,196.861908 570.035828,197.033432 570.141235,197.120850 
	C570.174744,197.585297 570.102722,197.962326 569.960815,198.620117 
z"/>
<path fill="#A10000" opacity="1.000000" stroke="none" 
	d="
M224.676483,370.957458 
	C224.616165,371.341461 224.258759,371.744904 223.622894,372.190125 
	C223.689407,371.813538 224.034409,371.395233 224.676483,370.957458 
z"/>
<path fill="#A00000" opacity="1.000000" stroke="none" 
	d="
M94.531158,78.826569 
	C94.435158,79.192886 94.052170,79.626007 93.356346,80.055275 
	C93.443726,79.665398 93.843948,79.279388 94.531158,78.826569 
z"/>
<path fill="#A20202" opacity="1.000000" stroke="none" 
	d="
M265.664642,208.951050 
	C265.504517,209.326462 265.032684,209.670929 264.257446,209.982605 
	C264.420380,209.606583 264.886627,209.263336 265.664642,208.951050 
z"/>
<path fill="#4C0000" opacity="1.000000" stroke="none" 
	d="
M74.080673,200.937653 
	C74.592957,201.304916 75.235031,201.720764 74.465614,202.390518 
	C74.280518,202.149033 74.095413,201.907562 73.835365,201.439453 
	C73.760422,201.212830 73.973488,201.028870 74.080673,200.937653 
z"/>
<path fill="#FB2100" opacity="1.000000" stroke="none" 
	d="
M228.999374,368.999390 
	C229.111465,368.763458 229.224182,368.528137 229.336914,368.292816 
	C229.375916,368.534088 229.414917,368.775330 229.227570,369.008911 
	C229.001221,369.001221 229.000000,369.000000 228.999374,368.999390 
z"/>
<path fill="#A20202" opacity="1.000000" stroke="none" 
	d="
M153.569214,349.504944 
	C153.448944,349.600983 153.415909,349.237976 153.415909,349.237976 
	C153.415909,349.237976 153.689484,349.408905 153.569214,349.504944 
z"/>
<path fill="#100200" opacity="1.000000" stroke="none" 
	d="
M347.151123,376.340851 
	C343.948761,374.345276 341.039673,373.829590 337.707367,374.283905 
	C326.768707,375.775238 315.797882,375.656403 304.842407,374.338074 
	C301.989777,373.994843 299.180542,373.702850 296.458862,375.969727 
	C295.538177,376.301849 295.084991,376.145844 294.809143,375.239410 
	C297.884277,368.711700 302.668518,367.381561 309.220764,368.507050 
	C316.880066,369.822601 324.819031,369.915100 332.452667,368.579224 
	C339.564240,367.334717 344.713501,368.787231 348.314636,375.582245 
	C348.219025,376.061554 347.934113,376.239624 347.151123,376.340851 
z"/>
<path fill="#100200" opacity="1.000000" stroke="none" 
	d="
M324.701416,303.395874 
	C326.697937,314.742767 323.712463,325.204254 321.424988,336.806274 
	C317.341431,321.388031 314.392273,307.008392 321.560486,291.837341 
	C322.697540,295.997803 323.652100,299.490417 324.701416,303.395874 
z"/>
<path fill="#100200" opacity="1.000000" stroke="none" 
	d="
M337.419861,289.844452 
	C343.124786,283.991272 348.688629,278.520355 354.313690,273.113098 
	C355.612732,271.864380 356.850464,270.417877 359.195435,270.066650 
	C353.311981,277.243683 346.722473,284.274384 342.895172,293.256500 
	C341.546906,296.420654 340.459167,299.695831 339.063843,303.424438 
	C337.525970,298.940918 336.413269,294.762329 337.419861,289.844452 
z"/>
<path fill="#160302" opacity="1.000000" stroke="none" 
	d="
M286.844971,272.775330 
	C293.352539,276.892365 297.910583,283.265381 304.166595,288.246277 
	C304.744110,288.298492 304.993744,288.297943 305.098206,288.642517 
	C305.586700,293.376648 305.815155,297.715851 303.096252,302.875793 
	C299.964478,291.556946 294.224060,282.787811 286.958252,274.555359 
	C286.736023,273.919373 286.666809,273.577728 286.844971,272.775330 
z"/>
<path fill="#FD2D06" opacity="1.000000" stroke="none" 
	d="
M305.478455,284.055267 
	C304.737732,282.963470 304.359497,281.927460 303.922333,280.572693 
	C304.156433,279.144989 304.178375,277.263977 304.785919,277.050690 
	C309.168152,275.511932 311.742249,272.148224 313.982666,266.846405 
	C314.882935,275.620636 314.882935,275.620636 320.125061,273.506897 
	C320.845093,274.073029 320.617889,274.840851 320.119385,275.199066 
	C316.999054,277.441376 313.763092,279.330414 312.049774,283.230988 
	C310.915192,285.814087 308.112366,285.046356 305.478455,284.055267 
z"/>
<path fill="#FD2D06" opacity="1.000000" stroke="none" 
	d="
M365.640778,222.957489 
	C366.851227,224.123932 368.086304,223.977600 369.632629,223.999573 
	C369.844299,225.698120 369.000122,226.896347 367.241791,226.912994 
	C364.432068,226.939590 362.871613,228.031326 362.933197,231.015717 
	C362.946045,231.636749 362.763031,232.410141 361.901550,232.454819 
	C360.923492,232.505569 360.509552,231.767273 360.163177,230.998795 
	C359.080536,228.596741 358.007629,226.190201 356.906189,223.796768 
	C356.406830,222.711700 355.902161,221.646225 357.088745,220.685669 
	C357.958649,219.981445 358.915771,220.055222 359.874237,220.480865 
	C361.679749,221.282684 363.478607,222.099579 365.640778,222.957489 
z"/>
<path fill="#380600" opacity="1.000000" stroke="none" 
	d="
M336.496887,359.167023 
	C336.925812,359.177368 336.849152,359.547333 336.810303,359.732086 
	C327.594360,363.609070 318.274323,363.911407 308.451294,360.981354 
	C307.679993,360.577240 307.521484,360.188538 307.878906,359.492645 
	C317.465088,360.748993 326.768188,360.311493 336.496887,359.167023 
z"/>
<path fill="#4C0000" opacity="1.000000" stroke="none" 
	d="
M346.812805,376.540070 
	C346.961334,376.200409 347.269623,376.136810 348.040955,375.978333 
	C349.792053,376.600311 350.755920,377.609436 351.895386,380.185028 
	C349.644196,378.644409 348.308380,377.730255 346.812805,376.540070 
z"/>
<path fill="#FA2C05" opacity="1.000000" stroke="none" 
	d="
M305.287720,288.951416 
	C304.953003,288.987671 304.632355,288.703613 304.563416,288.501343 
	C304.674896,287.795258 304.855347,287.291443 305.118347,286.392700 
	C306.087189,286.145752 307.365204,285.752533 307.505768,287.106018 
	C307.627350,288.276306 306.588196,288.654205 305.287720,288.951416 
z"/>
<path fill="#4C0000" opacity="1.000000" stroke="none" 
	d="
M294.599609,374.969543 
	C295.107727,375.160034 295.350586,375.477570 295.853271,375.949707 
	C295.261871,376.795776 294.410614,377.487213 293.258087,378.325745 
	C292.827057,378.215912 292.697296,377.959015 292.681274,377.285583 
	C293.308136,376.278229 293.821259,375.687408 294.599609,374.969543 
z"/>
<path fill="#4C0000" opacity="1.000000" stroke="none" 
	d="
M286.976715,272.072449 
	C287.043579,272.638824 286.994873,272.963104 286.875641,273.774231 
	C285.790161,273.633057 284.980774,272.828827 284.757568,271.360504 
	C285.740845,270.897949 286.361694,271.213867 286.976715,272.072449 
z"/>
<path fill="#940001" opacity="1.000000" stroke="none" 
	d="
M307.866638,359.168182 
	C308.124603,359.635437 308.095856,359.987000 308.073425,360.603088 
	C307.170929,360.647003 306.205811,360.511139 305.883575,359.407959 
	C306.449005,359.289459 307.014465,359.170990 307.866638,359.168182 
z"/>
<path fill="#940001" opacity="1.000000" stroke="none" 
	d="
M292.564362,377.009277 
	C292.823090,377.135559 292.851166,377.402039 292.918030,378.070679 
	C292.520874,378.975342 291.921692,379.331573 291.570770,378.598389 
	C291.430084,378.304474 292.056458,377.643402 292.564362,377.009277 
z"/>
<path fill="#4C0000" opacity="1.000000" stroke="none" 
	d="
M283.087830,270.331238 
	C283.538086,270.174011 284.133698,270.323975 284.847961,270.772522 
	C284.211395,271.637512 283.740448,271.065125 283.087830,270.331238 
z"/>
<path fill="#4C0000" opacity="1.000000" stroke="none" 
	d="
M282.022095,269.248199 
	C282.234772,269.177124 282.533203,269.361725 282.915955,269.800903 
	C282.702789,269.871613 282.405304,269.687744 282.022095,269.248199 
z"/>
<path fill="#4C0000" opacity="1.000000" stroke="none" 
	d="
M280.924133,268.235107 
	C281.101807,268.181824 281.425385,268.370911 281.881775,268.809387 
	C281.699738,268.865021 281.384888,268.671265 280.924133,268.235107 
z"/>
<path fill="#FA2C05" opacity="1.000000" stroke="none" 
	d="
M411.787201,390.336060 
	C414.203705,387.644745 414.932037,383.611603 419.797546,384.403442 
	C421.752808,384.721680 420.361023,381.464417 421.924133,380.088379 
	C423.639069,381.763214 424.644836,383.872284 424.957275,386.638611 
	C424.098999,387.182098 423.435577,387.516235 423.131683,388.447327 
	C421.044678,394.842041 419.809387,395.313141 413.358276,392.049347 
	C411.937958,392.170441 411.642365,391.540558 411.787201,390.336060 
z"/>
<path fill="#050101" opacity="1.000000" stroke="none" 
	d="
M174.536316,216.755173 
	C174.817886,216.063141 175.358536,215.789261 175.907974,216.511597 
	C175.536560,216.669189 175.165146,216.826782 174.536316,216.755173 
z"/>
<path fill="#FD2D06" opacity="1.000000" stroke="none" 
	d="
M470.000366,233.573654 
	C468.087555,235.117844 466.132355,236.133286 463.472534,236.291901 
	C462.403809,236.008881 462.090057,235.414337 461.976501,234.349777 
	C460.480103,232.073822 458.952728,230.149307 457.445892,228.208832 
	C457.380737,228.124939 457.504486,227.894318 457.608673,227.421341 
	C459.820435,227.113113 462.207153,227.718552 464.546387,226.478622 
	C466.359406,225.517639 468.050110,225.302719 468.158722,222.653763 
	C468.255310,220.296799 470.284821,219.250214 472.421173,219.460876 
	C474.293823,219.645538 475.366028,220.901779 474.547668,223.043793 
	C474.401855,223.425476 474.471710,224.101456 474.726562,224.391296 
	C477.034515,227.016083 476.857330,228.276215 473.260559,228.808670 
	C470.196136,229.262299 469.828949,230.772903 470.000366,233.573654 
z"/>
<path fill="#FA2C05" opacity="1.000000" stroke="none" 
	d="
M563.681885,130.017639 
	C563.994263,133.117737 564.472168,136.253326 563.211670,139.640259 
	C561.175964,140.093262 559.356140,139.418945 559.456909,142.877808 
	C559.537720,145.648758 556.778198,147.112717 553.387451,147.000809 
	C552.837708,147.129517 552.670593,147.257812 552.252930,147.193359 
	C548.262024,143.571442 550.977295,139.176422 550.389221,135.275040 
	C550.167908,133.806458 552.161194,133.871216 552.999817,134.742554 
	C555.799377,137.651443 556.602966,136.337463 557.675354,133.225082 
	C558.425110,131.048843 560.610657,129.684204 563.681885,130.017639 
z"/>
<path fill="#FD2D06" opacity="1.000000" stroke="none" 
	d="
M488.266663,205.211761 
	C488.276398,201.727158 489.351440,199.052887 493.217957,199.015991 
	C495.914948,198.990234 495.862396,197.161102 496.157196,195.312637 
	C496.363556,194.018555 496.821899,192.264633 498.320190,192.340149 
	C500.779785,192.464127 499.086456,194.286682 499.105499,195.362717 
	C499.184601,199.838898 502.432556,196.991409 504.189270,197.557098 
	C504.308228,197.874924 504.561920,198.379501 504.502716,198.419342 
	C500.913727,200.835373 498.171631,203.851807 495.615509,207.473007 
	C493.160431,210.951126 490.454712,207.854889 488.266663,205.211761 
z"/>
<path fill="#FD2D06" opacity="1.000000" stroke="none" 
	d="
M487.999390,204.999191 
	C486.544373,207.343735 487.766479,208.714981 489.763397,209.771408 
	C490.579865,210.203384 492.101440,211.353729 491.351044,211.510468 
	C486.576263,212.507751 487.047333,219.257065 482.114929,219.973557 
	C480.660583,217.745331 484.611084,217.316879 483.266113,215.680771 
	C482.093811,214.254684 480.506165,215.623001 479.088318,215.737991 
	C476.640839,215.936493 475.291748,214.435776 475.139038,212.208328 
	C474.969604,209.736694 476.695496,208.193054 478.803101,207.441467 
	C479.928741,207.040070 480.637848,207.985062 480.093994,209.245041 
	C479.659088,210.252655 478.194153,210.725662 478.598572,212.445206 
	C480.315918,212.284500 482.058197,212.165558 483.788086,211.947952 
	C485.761749,211.699677 486.317322,210.536270 484.536163,209.535934 
	C482.687653,208.497742 481.224487,207.360748 482.290924,205.365601 
	C483.460754,203.177048 485.578003,205.607773 487.608765,204.999649 
	C488.001221,205.001831 488.000000,205.000000 487.999390,204.999191 
z"/>
<path fill="#FD2D06" opacity="1.000000" stroke="none" 
	d="
M551.620605,146.991547 
	C552.169434,147.000610 552.336487,147.000610 552.754272,147.000916 
	C552.636108,148.446854 554.046997,150.947372 550.550171,150.448532 
	C548.458069,150.150070 547.210754,151.548767 547.455566,153.814056 
	C547.544922,154.641342 547.877869,155.508240 546.689514,155.743225 
	C545.708557,155.937180 545.276672,155.164139 544.749207,154.524139 
	C542.922058,152.307175 542.089050,149.583282 541.272217,146.958389 
	C540.497375,144.468185 542.124146,143.670151 544.384766,144.320816 
	C546.742676,144.999481 548.654480,146.858795 551.620605,146.991547 
z"/>
<path fill="#FA2C05" opacity="1.000000" stroke="none" 
	d="
M461.574280,234.000549 
	C462.337097,234.553329 462.670532,235.105362 463.051575,235.996414 
	C460.479584,238.752777 456.995209,239.039673 453.445435,240.142029 
	C452.818115,234.280502 456.544128,233.568756 461.574280,234.000549 
z"/>
<path fill="#050101" opacity="1.000000" stroke="none" 
	d="
M466.595764,216.371170 
	C466.571136,216.641006 466.367310,216.690674 466.163513,216.740356 
	C466.247894,216.543915 466.332245,216.347458 466.595764,216.371170 
z"/>
<path fill="#380600" opacity="1.000000" stroke="none" 
	d="
M551.241089,190.828705 
	C551.147766,190.426987 551.333435,189.887802 551.747925,189.167816 
	C551.824585,189.555099 551.672302,190.123169 551.241089,190.828705 
z"/>
<path fill="#380600" opacity="1.000000" stroke="none" 
	d="
M552.004883,189.011932 
	C552.011292,189.022873 552.204102,188.707855 552.204102,188.707855 
	C552.204102,188.707855 552.152283,188.892303 552.064575,188.939667 
	C551.976868,188.987030 551.998413,189.000992 552.004883,189.011932 
z"/>
<path fill="#380600" opacity="1.000000" stroke="none" 
	d="
M551.005310,191.007690 
	C550.954712,191.350342 550.803284,191.631180 550.374817,192.015137 
	C550.185242,192.165482 549.966797,191.955399 549.858093,191.845215 
	C549.937683,191.452850 550.179260,191.227875 550.718079,191.013123 
	C550.962097,190.966156 550.992065,190.993057 551.005310,191.007690 
z"/>
<path fill="#380600" opacity="1.000000" stroke="none" 
	d="
M90.013550,189.305969 
	C90.339157,189.475128 90.689407,189.927368 91.012756,190.698517 
	C90.669975,190.541306 90.354080,190.065186 90.013550,189.305969 
z"/>
<path fill="#380600" opacity="1.000000" stroke="none" 
	d="
M90.013283,188.993225 
	C90.024261,188.985886 89.680893,188.828796 89.680893,188.828796 
	C89.680893,188.828796 89.873695,188.857864 89.931305,188.940369 
	C89.988914,189.022888 90.002304,189.000549 90.013283,188.993225 
z"/>
<path fill="#380600" opacity="1.000000" stroke="none" 
	d="
M91.926880,192.058685 
	C91.534355,191.993301 91.310616,191.763443 91.066513,191.246185 
	C90.985870,191.017441 91.005424,190.995010 91.017784,190.984039 
	C91.387032,190.963120 91.684677,191.091019 92.084999,191.546295 
	C92.246933,191.735794 92.035385,191.952881 91.926880,192.058685 
z"/>
<path fill="#070000" opacity="1.000000" stroke="none" 
	d="
M308.771790,419.471527 
	C302.205872,417.323914 297.890320,412.500275 292.688965,408.392639 
	C311.765259,410.780914 330.757721,411.193146 350.158508,407.487640 
	C342.057129,419.100494 324.257690,424.136810 308.771790,419.471527 
z"/>
<path fill="#050101" opacity="1.000000" stroke="none" 
	d="
M370.016541,413.985504 
	C370.144470,414.120361 370.260162,414.265930 370.375854,414.411499 
	C370.274994,414.376617 370.174133,414.341766 370.028503,414.163361 
	C369.983795,414.019836 370.004364,413.996216 370.016541,413.985504 
z"/>
<path fill="#050101" opacity="1.000000" stroke="none" 
	d="
M276.017303,423.993500 
	C275.923004,423.921387 275.809357,423.864044 275.695679,423.806732 
	C275.779724,423.785614 275.863800,423.764526 275.956329,423.893799 
	C275.964813,424.044128 275.997925,424.008301 276.017303,423.993500 
z"/>
<path fill="#050101" opacity="1.000000" stroke="none" 
	d="
M366.020111,424.027161 
	C366.104431,423.988983 366.171448,423.932312 366.100708,423.926514 
	C365.962952,423.977417 366.002838,424.008667 366.020111,424.027161 
z"/>
<path fill="#050101" opacity="1.000000" stroke="none" 
	d="
M271.994232,413.991852 
	C271.902588,414.000580 271.819580,414.019745 271.880249,414.029816 
	C272.023895,414.020721 272.002869,414.002289 271.994232,413.991852 
z"/>
<path fill="#FD2D06" opacity="1.000000" stroke="none" 
	d="
M411.925354,400.964783 
	C411.852417,401.659607 411.866547,402.048157 411.684875,402.288971 
	C410.446777,403.930023 409.195557,406.849792 406.959717,405.374634 
	C405.009521,404.087921 408.949860,402.863647 408.468445,400.886536 
	C407.277191,399.633179 406.079254,401.060730 404.863312,401.023102 
	C403.054779,400.967163 401.514008,400.506104 400.673340,398.904022 
	C399.724182,397.095184 401.087616,395.773376 402.088562,394.510040 
	C402.807007,393.603271 403.848145,392.644989 405.043152,393.398834 
	C406.285614,394.182556 405.054077,395.055969 404.752655,395.908936 
	C403.896942,398.330414 405.526245,397.969360 406.817474,397.536713 
	C409.788605,396.541107 411.139618,398.038849 411.925354,400.964783 
z"/>
<path fill="#FD2D06" opacity="1.000000" stroke="none" 
	d="
M411.606384,390.003174 
	C412.175720,390.549194 412.352631,391.093506 412.759460,391.817047 
	C413.052490,394.015045 414.534058,394.613678 416.076050,395.351624 
	C417.136047,395.858887 417.004791,396.981964 416.339447,397.879700 
	C415.797607,398.610809 414.997711,398.932343 414.198486,398.405853 
	C412.293549,397.150909 410.322632,395.945770 408.631134,394.437134 
	C407.707062,393.613007 407.059021,392.068451 407.644684,390.854431 
	C408.326447,389.441223 409.977173,390.172058 411.606384,390.003174 
z"/>
</svg>