<svg version="1.1" id="Layer_1" xmlns="http://www.w3.org/2000/svg" xmlns:xlink="http://www.w3.org/1999/xlink" x="0px" y="0px"
	 width="100%" viewBox="0 0 64 64" enable-background="new 0 0 64 64" xml:space="preserve">
<path fill="#0000" opacity="1.000000" stroke="none" 
	d="
M48.004738,65.000000 
	C32.003754,65.000000 16.503887,65.000000 1.003018,65.000000 
	C1.002012,43.668194 1.002012,22.336390 1.001006,1.003438 
	C22.331619,1.002292 43.663239,1.002292 64.996140,1.001146 
	C64.997429,22.331430 64.997429,43.662861 64.998718,64.997147 
	C59.501953,65.000000 54.003902,65.000000 48.004738,65.000000 
M19.000000,29.574743 
	C19.000000,32.004208 19.000000,34.433670 19.000000,36.820522 
	C21.670826,36.980663 23.745197,37.105042 26.000000,37.240242 
	C26.000000,41.235508 25.929182,44.875984 26.012991,48.512897 
	C26.287769,60.436890 23.523270,58.957611 37.014053,58.931053 
	C37.273369,58.930546 37.532043,58.601749 38.165184,58.172363 
	C38.165184,51.350204 38.165184,44.280128 38.165184,36.843678 
	C41.284718,36.843678 44.025570,36.843678 46.726753,36.843678 
	C47.484222,25.970589 47.484222,25.970589 37.902485,24.446844 
	C38.064461,22.700840 37.678028,19.764959 38.495644,19.378870 
	C40.990810,18.200623 43.949638,18.004257 46.742043,17.422888 
	C46.742043,14.065177 46.742043,10.661421 46.742043,6.174076 
	C41.455456,7.111120 36.081902,6.959671 31.843611,9.078781 
	C25.792465,12.104302 26.314148,19.082262 25.648989,25.088549 
	C23.368561,25.088549 21.415770,25.088549 19.000015,25.088549 
	C19.000015,26.399450 19.000015,27.513283 19.000000,29.574743 
z"/>
<path fill="#FFFFFF" opacity="1.000000" stroke="none" 
	d="
M19.000008,29.100929 
	C19.000015,27.513283 19.000015,26.399450 19.000015,25.088549 
	C21.415770,25.088549 23.368561,25.088549 25.648989,25.088549 
	C26.314148,19.082262 25.792465,12.104302 31.843611,9.078781 
	C36.081902,6.959671 41.455456,7.111120 46.742043,6.174076 
	C46.742043,10.661421 46.742043,14.065177 46.742043,17.422888 
	C43.949638,18.004257 40.990810,18.200623 38.495644,19.378870 
	C37.678028,19.764959 38.064461,22.700840 37.902485,24.446844 
	C47.484222,25.970589 47.484222,25.970589 46.726753,36.843678 
	C44.025570,36.843678 41.284718,36.843678 38.165184,36.843678 
	C38.165184,44.280128 38.165184,51.350204 38.165184,58.172363 
	C37.532043,58.601749 37.273369,58.930546 37.014053,58.931053 
	C23.523270,58.957611 26.287769,60.436890 26.012991,48.512897 
	C25.929182,44.875984 26.000000,41.235508 26.000000,37.240242 
	C23.745197,37.105042 21.670826,36.980663 19.000000,36.820522 
	C19.000000,34.433670 19.000000,32.004208 19.000008,29.100929 
z"/>
</svg>